<svg id="Capa_1" enable-background="new 0 0 512 512" height="512" viewBox="0 0 512 512" width="512" xmlns="http://www.w3.org/2000/svg"><g><g><path d="m497 201h-22.785c-5.339-21.312-13.722-41.546-25.026-60.407l16.115-16.115c5.858-5.858 5.858-15.355 0-21.213l-56.569-56.569c-5.858-5.858-15.355-5.858-21.213 0l-16.115 16.115c-18.859-11.304-39.096-19.687-60.407-25.026v-22.785c0-8.284-6.716-15-15-15h-80c-8.284 0-15 6.716-15 15v22.785c-21.311 5.338-41.548 13.722-60.407 25.026l-16.115-16.115c-5.858-5.858-15.355-5.858-21.213 0l-56.568 56.569c-5.858 5.858-5.858 15.355 0 21.213l16.114 16.115c-11.304 18.86-19.687 39.094-25.026 60.407h-22.785c-8.284 0-15 6.716-15 15v80c0 8.284 6.716 15 15 15h22.785c5.339 21.313 13.722 41.547 25.026 60.407l-16.115 16.115c-5.858 5.858-5.858 15.355 0 21.213l56.569 56.568c5.858 5.858 15.355 5.858 21.213 0l16.115-16.115c18.86 11.303 39.097 19.687 60.407 25.025v22.787c0 8.284 6.716 15 15 15h80c8.284 0 15-6.716 15-15v-22.786c21.31-5.338 41.547-13.722 60.407-25.025l16.115 16.114c5.858 5.858 15.355 5.858 21.213 0l56.569-56.568c5.858-5.858 5.858-15.355 0-21.213l-16.115-16.115c11.304-18.861 19.687-39.095 25.025-60.407h22.786c8.284 0 15-6.716 15-15v-80c0-8.284-6.716-15-15-15z" fill="#e2dff4"/><path d="m497 201h-22.785c-5.339-21.312-13.722-41.546-25.026-60.407l16.115-16.115c5.858-5.858 5.858-15.355 0-21.213l-56.569-56.569c-5.858-5.858-15.355-5.858-21.213 0l-16.115 16.115c-18.859-11.304-39.096-19.687-60.407-25.026v-22.785c0-8.284-6.716-15-15-15h-40v512h40c8.284 0 15-6.716 15-15v-22.786c21.31-5.338 41.547-13.722 60.407-25.025l16.115 16.114c5.858 5.858 15.355 5.858 21.213 0l56.569-56.568c5.858-5.858 5.858-15.355 0-21.213l-16.115-16.115c11.304-18.861 19.687-39.095 25.025-60.407h22.786c8.284 0 15-6.716 15-15v-80c0-8.284-6.716-15-15-15z" fill="#bebcdd"/></g><circle cx="256" cy="256" fill="#ffdd54" r="140"/><path d="m396 256c0-77.32-62.68-140-140-140v280c77.32 0 140-62.68 140-140z" fill="#ffb454"/><path d="m256 411c-85.468 0-155-69.533-155-155s69.532-155 155-155 155 69.533 155 155-69.532 155-155 155zm0-280c-68.925 0-125 56.075-125 125s56.075 125 125 125 125-56.075 125-125-56.075-125-125-125z" fill="#fff17d"/><path d="m381 256c0 68.925-56.075 125-125 125v30c85.468 0 155-69.533 155-155s-69.532-155-155-155v30c68.925 0 125 56.075 125 125z" fill="#ffdd54"/><path d="m275.927 245.766c-2.86-1.011-5.787-2.072-8.705-3.175v-47.271c7.361 1.561 11.049 5.339 11.221 5.521 3.632 4.144 9.933 4.569 14.089.949 4.165-3.628 4.6-9.944.972-14.109-.512-.587-9.416-10.511-26.281-12.65v-9.031c0-5.523-4.478-10-10-10s-10 4.477-10 10v10.247c-1.448.336-2.917.71-4.432 1.166-14.214 4.282-24.836 16.446-27.719 31.745-2.63 13.952 1.842 27.408 11.669 35.116 5.19 4.071 11.646 7.799 20.481 11.735v59.307c-7.594-.573-12.888-2.448-21.529-8.101-4.622-3.024-10.82-1.727-13.843 2.894-3.023 4.622-1.729 10.82 2.894 13.843 12.664 8.284 21.321 10.767 32.479 11.404v10.644c0 5.523 4.478 10 10 10s10-4.477 10-10v-11.441c22.245-4.395 35.237-22.753 38.12-39.901 3.71-22.073-7.837-41.264-29.416-48.892zm-36.843-17.228c-3.93-3.083-5.6-9.089-4.358-15.675 1.108-5.878 4.971-12.938 12.496-15.833v36.722c-3.061-1.668-5.83-3.404-8.138-5.214zm46.534 62.805c-1.517 9.025-7.768 18.615-18.396 22.46v-49.911c.679.243 1.341.483 2.039.73 18.26 6.455 17.136 22.084 16.357 26.721z" fill="#fff17d"/><path d="m275.927 245.766c-2.86-1.011-5.787-2.072-8.705-3.175v-47.271c7.361 1.561 11.049 5.339 11.221 5.521 3.632 4.144 9.933 4.569 14.089.949 4.165-3.628 4.6-9.944.972-14.109-.512-.587-9.416-10.511-26.281-12.65v-9.031c0-5.523-4.478-10-10-10-.414 0-.821.033-1.222.082v199.836c.401.049.807.082 1.222.082 5.522 0 10-4.477 10-10v-11.441c22.245-4.395 35.237-22.753 38.12-39.901 3.71-22.073-7.837-41.264-29.416-48.892zm9.691 45.577c-1.517 9.025-7.768 18.615-18.396 22.46v-49.911c.679.243 1.341.483 2.039.73 18.26 6.455 17.136 22.084 16.357 26.721z" fill="#ffdd54"/></g></svg>