<?xml version="1.0" encoding="UTF-8"?>
<!-- Generator: Adobe Illustrator 25.2.3, SVG Export Plug-In . SVG Version: 6.00 Build 0)  -->
<svg xmlns="http://www.w3.org/2000/svg" xmlns:xlink="http://www.w3.org/1999/xlink" version="1.1" id="Capa_1" x="0px" y="0px" viewBox="0 0 511.67 511.67" style="enable-background:new 0 0 511.67 511.67;" xml:space="preserve" width="512" height="512">
<g>
	<g>
		<path style="fill:#FFFFFF;" d="M253.043,511.668c-28.463-0.11-56.849-5.302-83.572-15.081    c-13.884-5.081-27.323-11.351-40.08-18.829c-23.419-13.728-44.235-31.951-61.707-52.674c-3.834-4.548-7.511-9.229-11.02-14.031    c-15.221-20.828-26.886-44.351-34.496-68.981c-7.67-24.824-11.19-50.866-10.465-76.834c0.72-25.752,5.58-51.33,14.019-75.658    c8.868-25.565,21.554-50.585,38.275-71.926c7.731-9.867,16.434-19.433,25.757-27.978c3.055-2.8,11.574-10.149,11.574-10.149    c1.42-2.995,2.91-5.59,4.582-8.002c5.965-8.606,14.875-15.603,26.483-20.797c8.656-3.872,18.113-6.324,27.512-7.146    c5.55-2.43,11.188-4.653,16.905-6.657c5.783-2.027,11.644-3.833,17.567-5.404c1.746-0.463,3.497-0.905,5.253-1.327    c0.056-0.013,0.114-0.029,0.17-0.042c1.657-2.488,3.484-4.853,5.471-7.07c19.322-21.557,51.441-28.323,78.452-18.993    c5.489,1.896,9.191,7.041,9.243,12.848c0.025,2.878-0.257,5.747-0.842,8.603c42.724,6.033,84.419,24.943,118.13,51.748    c26.494,21.066,47.993,47.674,63.34,77.828c6.371,12.518,11.688,25.566,15.974,38.941c12.294,38.367,13.43,82.419,5.268,121.713    c-4.555,21.921-12.089,43.24-22.525,63.057c-17.042,32.362-41.583,61.476-71,83.449c-14.136,10.559-29.397,19.615-45.446,26.946    c-16.325,7.457-33.445,13.173-50.981,16.999C288,509.905,270.326,511.736,253.043,511.668z"/>
	</g>
	<g>
		<g>
			<g>
				<g>
					<path style="fill:#7EA8C5;" d="M485.545,276.301c-0.023,0.412-0.046,0.777-0.091,1.212c-0.64,12.211-2.241,24.376-4.825,36.382       c-0.069,0.434-0.16,0.823-0.252,1.258c-2.79,12.691-6.654,25.223-11.617,37.411c-0.16,0.389-0.32,0.823-0.503,1.212       c-5.191,12.6-11.525,24.834-19.048,36.542c-0.229,0.412-0.503,0.8-0.777,1.166c-3.59,5.626-7.477,11.091-11.639,16.396       c-0.229,0.343-0.503,0.663-0.755,0.983c-0.023,0.023-0.046,0.068-0.068,0.091c-2.616,2.646-4.726,5.822-7.154,8.644       c-5.015,5.828-10.353,11.382-15.933,16.671c-28.509,27.022-63.743,46.557-101.754,56.46       c-39.457,10.28-81.434,9.968-120.685-1.107c-37.405-10.554-71.76-30.636-99.245-58.12c-2.058-2.058-4.07-4.139-5.991-6.243       c-0.183-0.183-0.389-0.389-0.549-0.595c-0.115-0.091-0.183-0.206-0.275-0.297c-0.983-1.098-1.99-2.195-2.95-3.293       c-0.892-1.006-1.761-1.989-2.607-3.019c-20.512-23.988-35.193-51.246-44.088-80.036c-6.303-20.401-9.789-42.161-10.221-63.594       c-0.401-19.933,1.757-39.926,6.493-59.295c5.047-20.64,12.816-40.656,23.288-59.157c3.795-6.705,8.204-12.94,12.271-19.461       c3.832-6.145,8.319-11.855,13.099-17.287c2.39-2.717,4.856-5.367,7.357-7.982c2.124-2.222,4.819-4.893,6.871-6.996       c0.115-0.118,0.229-0.229,0.343-0.343c0.206-0.252,0.434-0.434,0.663-0.663c5.564-5.707,11.702-10.892,17.941-15.843       c15.194-12.055,31.811-22.19,49.511-30.127c10.899-4.887,22.148-8.937,33.667-12.099c4.286-1.177,8.604-2.239,12.952-3.164       c11.799-2.512,23.827-4.059,35.869-4.751c4.578-0.263,9.165-0.383,13.75-0.36c12.174,0.063,24.333,1.035,36.344,3.038       c0.728,0.121,1.454,0.254,2.181,0.376c0.275,0.046,0.572,0.092,0.869,0.16c0.732,0.114,1.486,0.251,2.218,0.389       c11.766,2.207,23.394,5.357,34.665,9.386c11.015,3.937,21.838,8.791,32.148,14.411c10.317,5.623,20.226,12.062,29.537,19.227       c2.643,2.034,5.239,4.128,7.787,6.279c1.097,0.915,2.195,1.829,3.247,2.767c8.603,7.666,16.822,15.797,24.297,24.573       c5.328,6.255,9.887,12.983,14.806,19.538c0.275,0.366,0.526,0.755,0.778,1.166c6.164,10.082,12.317,20.098,17.284,30.842       c0.458,0.99,0.909,1.983,1.353,2.979c0.16,0.366,0.32,0.709,0.503,1.098c4.665,10.679,8.484,21.701,11.457,32.883       c0.091,0.366,0.183,0.732,0.297,1.121c2.893,10.919,4.856,22.074,6.106,33.295c0.046,0.412,0.069,0.8,0.137,1.166       C485.697,253.11,486.175,264.735,485.545,276.301z"/>
				</g>
			</g>
			<g style="opacity:0.44;">
				<g>
					<g>
						<g>
							<path style="fill:#FFC17D;" d="M396.777,448.143c-0.727-0.372-1.439-0.76-2.167-1.132         c-17.803-9.265-36.187-18.854-69.675-14.892c-33.52,3.962-49.156,17.56-64.29,30.722         c-14.052,12.208-28.539,24.788-57.532,29.558c0.97,0.259,1.957,0.469,2.959,0.663c0.016-0.016,0.016-0.016,0.032,0         c27.44-5.158,41.572-17.447,55.284-29.38c15.005-13.033,30.528-26.518,63.676-30.431         c33.148-3.913,51.387,5.595,69.012,14.779c0.566,0.307,1.148,0.598,1.714,0.873         C396.13,448.66,396.454,448.402,396.777,448.143z"/>
						</g>
					</g>
				</g>
				<g>
					<g>
						<g>
							<path style="fill:#FFC17D;" d="M423.804,423.269c-0.297,0.32-0.617,0.64-0.915,0.96c-0.023,0-0.023,0-0.046,0         c-10.93-3.087-19.94-7.752-28.767-12.394c-17.631-9.17-35.856-18.682-69.013-14.772c-4.231,0.503-8.164,1.166-11.845,1.944         c-25.245,5.419-38.737,17.127-51.817,28.516c-1.509,1.303-3.019,2.63-4.551,3.933c-13.88,11.823-29.59,23.21-59.73,26.778         c-33.524,3.956-51.909-5.625-69.677-14.887c-11.228-5.854-22.684-11.822-38.074-14.383c-0.48-0.457-0.915-0.938-1.349-1.395         c16.327,2.424,28.264,8.667,39.949,14.749c17.631,9.193,35.833,18.706,69.014,14.772         c29.91-3.521,45.437-14.841,59.203-26.595c1.509-1.281,2.996-2.561,4.459-3.842c13.4-11.662,27.212-23.645,53.464-28.973         c3.384-0.709,6.974-1.281,10.816-1.738c33.524-3.956,51.909,5.626,69.677,14.887c8.918,4.665,18.02,9.398,29.156,12.44         C423.781,423.269,423.781,423.269,423.804,423.269z"/>
						</g>
					</g>
				</g>
				<g>
					<g>
						<g>
							<path style="fill:#FFC17D;" d="M449.209,390.317c-24.465,0.113-39.674-7.871-54.615-15.665         c-17.77-9.265-36.155-18.854-69.675-14.892c-33.504,3.946-49.156,17.56-64.274,30.706         c-15.022,13.049-30.512,26.534-63.66,30.447c-33.164,3.929-51.387-5.595-69.012-14.779         c-17.576-9.136-36.26-18.589-68.923-14.999c0.21,0.372,0.549,0.916,0.792,1.255c31.983-3.363,50.296,5.74,67.598,14.762         c17.77,9.265,36.155,18.854,69.675,14.892c33.503-3.945,49.14-17.544,64.274-30.706         c14.989-13.049,30.512-26.534,63.66-30.448c33.164-3.929,51.403,5.579,69.012,14.779         c14.925,7.778,30.068,15.764,54.371,15.813C448.735,391.102,448.949,390.743,449.209,390.317z"/>
						</g>
					</g>
				</g>
				<g>
					<g>
						<g>
							<path style="fill:#FFC17D;" d="M468.761,352.563c-1.73,0.275-3.311,0.486-5.138,0.696         c-33.164,3.897-51.387-5.595-69.028-14.795c-17.77-9.265-36.171-18.838-69.675-14.892         c-33.487,3.962-49.156,17.56-64.291,30.722c-14.989,13.049-30.496,26.518-63.66,30.448         c-33.148,3.913-51.387-5.595-69.012-14.779c-17.77-9.265-36.155-18.854-69.659-14.908c-5.805,0.695-11.46,1.878-16.278,3.107         c0.129,0.356,0.279,0.697,0.441,1.052c4.721-1.196,10.275-2.349,15.967-3.028c33.148-3.913,51.387,5.595,69.012,14.779         c17.786,9.281,36.171,18.87,69.659,14.908c33.52-3.962,49.156-17.56,64.29-30.722c15.005-13.033,30.512-26.534,63.66-30.447         c33.164-3.897,51.387,5.595,69.028,14.795c17.771,9.265,36.172,18.838,69.675,14.892c1.617-0.194,2.969-0.374,4.506-0.616         C468.435,353.371,468.599,352.984,468.761,352.563z"/>
						</g>
					</g>
				</g>
				<g>
					<g>
						<g>
							<path style="fill:#FFC17D;" d="M480.637,313.855c-5.207,1.39-10.628,2.457-17.015,3.217         c-33.164,3.929-51.387-5.595-69.012-14.779c-17.803-9.265-36.187-18.854-69.691-14.908         c-33.503,3.978-49.139,17.576-64.274,30.738c-15.005,13.033-30.528,26.518-63.676,30.431         c-33.148,3.913-51.371-5.579-69.012-14.779c-17.77-9.265-36.155-18.854-69.675-14.892         c-10.478,1.229-19.551,3.574-27.07,6.403c0.081,0.372,0.183,0.772,0.28,1.128c7.47-2.813,16.506-5.17,26.935-6.383         c33.164-3.929,51.387,5.562,68.996,14.763c17.803,9.265,36.187,18.854,69.675,14.892c33.503-3.945,49.156-17.56,64.29-30.722         c15.005-13.033,30.528-26.518,63.676-30.431c33.148-3.913,51.371,5.579,69.012,14.779         c17.771,9.265,36.155,18.854,69.675,14.892c6.225-0.728,11.532-1.71,16.625-3.052         C480.474,314.732,480.54,314.275,480.637,313.855z"/>
						</g>
					</g>
				</g>
				<g>
					<g>
						<g>
							<path style="fill:#FFC17D;" d="M485.548,276.256c-6.435,2.07-13.468,3.642-21.925,4.628         c-33.164,3.929-51.403-5.579-69.028-14.763c-17.787-9.282-36.171-18.87-69.659-14.908         c-33.52,3.962-49.156,17.56-64.29,30.722c-15.005,13.033-30.512,26.534-63.676,30.431         c-33.148,3.913-51.371-5.579-68.996-14.763c-17.786-9.281-36.172-18.87-69.675-14.892         c-13.275,1.568-24.055,4.777-32.803,8.738c0.032,0.42,0.048,0.776,0.113,1.164c8.732-4.01,19.512-7.202,32.819-8.77         c33.148-3.913,51.371,5.579,69.012,14.779c17.771,9.265,36.156,18.854,69.675,14.892         c33.487-3.962,49.156-17.56,64.274-30.706c15.005-13.065,30.512-26.534,63.676-30.463         c33.148-3.913,51.387,5.595,69.012,14.779c17.787,9.282,36.155,18.854,69.675,14.892c8.36-0.986,15.281-2.458,21.701-4.479         C485.469,277.133,485.548,276.677,485.548,276.256z"/>
						</g>
					</g>
				</g>
				<g>
					<g>
						<g>
							<path style="fill:#FFC17D;" d="M484.471,240.422c-6.193,1.924-12.844,3.353-20.864,4.291         c-33.148,3.913-51.387-5.595-69.012-14.779c-17.77-9.265-36.155-18.854-69.675-14.892         c-33.504,3.946-49.156,17.56-64.274,30.706c-15.022,13.049-30.512,26.534-63.66,30.447         c-33.164,3.929-51.387-5.595-69.012-14.779c-17.803-9.265-36.188-18.854-69.675-14.892         c-13.55,1.585-24.545,4.868-33.39,8.959c-0.032,0.421-0.06,0.852-0.076,1.288c8.877-4.155,19.915-7.499,33.595-9.116         c33.148-3.913,51.387,5.595,69.012,14.779c17.77,9.265,36.155,18.854,69.675,14.892c33.503-3.945,49.14-17.544,64.274-30.706         c14.989-13.049,30.512-26.534,63.66-30.448c33.164-3.929,51.403,5.579,69.028,14.763         c17.787,9.281,36.172,18.87,69.675,14.925c8.004-0.954,14.666-2.317,20.859-4.241         C484.547,241.237,484.506,240.824,484.471,240.422z"/>
						</g>
					</g>
				</g>
				<g>
					<g>
						<g>
							<path style="fill:#FFC17D;" d="M478.085,206.057c-4.528,1.1-9.062,1.838-14.463,2.484         c-33.164,3.897-51.387-5.595-69.028-14.795c-17.77-9.265-36.155-18.854-69.675-14.892         c-33.504,3.945-49.156,17.56-64.291,30.722c-14.989,13.049-30.496,26.518-63.66,30.448         c-33.148,3.913-51.387-5.595-69.012-14.779c-17.77-9.265-36.155-18.854-69.659-14.908         c-10.818,1.277-20.027,3.537-27.692,6.48c-0.129,0.453-0.23,0.952-0.327,1.405c7.745-3.056,17.121-5.459,28.149-6.752         c33.148-3.913,51.387,5.595,69.012,14.779c17.786,9.281,36.171,18.87,69.659,14.908c33.52-3.962,49.156-17.56,64.29-30.722         c15.005-13.033,30.512-26.534,63.66-30.447c33.164-3.897,51.387,5.595,69.012,14.779         c17.787,9.281,36.188,18.854,69.691,14.908c5.465-0.647,10.029-1.417,14.621-2.517         C478.258,206.763,478.169,206.442,478.085,206.057z"/>
						</g>
					</g>
				</g>
				<g>
					<g>
						<g>
							<path style="fill:#FFC17D;" d="M466.118,172.055c-0.954,0.146-1.509,0.185-2.496,0.299         c-33.148,3.913-51.387-5.595-69.012-14.779c-17.803-9.265-36.187-18.854-69.691-14.908         c-33.487,3.962-49.139,17.576-64.29,30.722c-14.989,13.049-30.512,26.534-63.66,30.447         c-33.148,3.913-51.371-5.579-69.012-14.779c-17.77-9.265-36.155-18.854-69.675-14.892c-5.077,0.614-9.978,1.443-14.295,2.462         c-0.21,0.437-0.355,0.847-0.549,1.267c4.495-1.099,9.621-1.967,14.99-2.614c33.164-3.897,51.387,5.595,68.996,14.795         c17.803,9.265,36.187,18.854,69.675,14.892c33.503-3.945,49.156-17.56,64.29-30.722         c15.005-13.033,30.528-26.518,63.676-30.431c33.148-3.913,51.371,5.579,69.012,14.779         c17.771,9.265,36.155,18.854,69.675,14.892c1.116-0.146,1.792-0.201,2.859-0.362         C466.436,172.75,466.28,172.411,466.118,172.055z"/>
						</g>
					</g>
				</g>
				<g>
					<g>
						<g>
							<path style="fill:#FFC17D;" d="M447.478,138.207c-23.668-0.274-38.737-8.141-53.395-15.801         c-17.631-9.193-35.879-18.682-69.014-14.772c-33.158,3.933-48.684,17.402-63.685,30.459         c-15.138,13.126-30.78,26.732-64.28,30.711c-33.501,3.933-51.886-5.625-69.654-14.909         c-16.396-8.552-33.272-17.333-62.153-15.39c0.274-0.412,0.572-0.801,0.846-1.212c28.607-1.738,45.483,7.066,61.833,15.596         c17.631,9.193,35.856,18.682,68.991,14.749c33.158-3.887,48.685-17.379,63.686-30.414         c15.138-13.172,30.756-26.778,64.28-30.734c33.501-3.956,51.886,5.625,69.677,14.887c14.361,7.5,29.133,15.23,52.092,15.664         C446.701,137.041,447.293,137.895,447.478,138.207z"/>
						</g>
					</g>
				</g>
				<g>
					<g>
						<g>
							<path style="fill:#FFC17D;" d="M407.598,92.93c0,0-9.124-4.436-13.537-6.7c-17.608-9.193-35.856-18.706-69.014-14.772         c-33.158,3.91-48.684,17.402-63.662,30.459c-4.071,3.544-8.21,7.134-12.737,10.565c-0.823,0.617-1.623,1.235-2.469,1.807         c-7.661,5.534-16.51,10.496-28.081,14.018c-0.206,0.091-0.412,0.16-0.64,0.206c-2.47,0.732-5.031,1.395-7.775,2.012         c-3.887,0.846-8.072,1.555-12.577,2.081c-26.572,3.156-43.631-2.218-58.426-9.193c-3.865-1.829-7.569-3.773-11.251-5.694         c-10.062-5.26-20.375-10.611-33.524-13.469c0.092-0.137,0.229-0.229,0.343-0.343c0.206-0.252,0.434-0.435,0.663-0.663         c12.897,2.973,23.073,8.255,33.066,13.469c3.293,1.715,6.609,3.43,10.039,5.076c14.909,7.18,31.991,12.874,58.975,9.696         c3.476-0.412,6.792-0.938,9.879-1.555c3.476-0.663,6.723-1.464,9.787-2.378c0.183-0.046,0.366-0.114,0.549-0.16         c12.371-3.704,21.632-9.055,29.636-14.978l0.023-0.023c0.503-0.366,0.983-0.732,1.464-1.121         c4.368-3.316,8.347-6.792,12.303-10.222c15.138-13.149,30.779-26.777,64.28-30.711c33.524-3.979,51.909,5.625,69.677,14.887         c3.201,1.669,6.426,3.339,9.741,4.939c0.023,0,0.023,0,0.023,0S407.06,92.416,407.598,92.93z"/>
						</g>
					</g>
				</g>
				<g>
					<g>
						<g>
							<path style="fill:#FFC17D;" d="M300.213,40.861c0,0-28.195,15.618-38.828,24.857c-0.938,0.823-1.852,1.601-2.79,2.424h-0.023         c-6.449,5.557-13.126,11.091-21.45,15.847c-0.343,0.206-0.709,0.389-1.075,0.595c-9.97,5.511-22.25,9.902-38.966,11.868         c-7.34,0.869-13.949,1.075-19.986,0.777c-0.663,0-1.326-0.046-1.967-0.114c-20.443-1.372-34.232-8.552-47.701-15.573         c-1.304-0.709-2.653-1.395-3.979-2.081c-0.046,0-0.069-0.023-0.114-0.046c0.366-0.251,0.709-0.503,1.075-0.732         c0.046,0,0.069,0.023,0.114,0.046c1.12,0.617,2.287,1.189,3.43,1.807c12.92,6.746,26.183,13.629,45.392,15.298         c0.617,0.069,1.258,0.114,1.898,0.137c6.494,0.457,13.675,0.274,21.724-0.663c16.51-1.967,28.653-6.266,38.532-11.754         c0.343-0.183,0.709-0.389,1.052-0.595c8.667-4.916,15.55-10.702,22.25-16.487l0.023-0.023         c0.595-0.526,1.212-1.052,1.807-1.578c10.336-9.032,20.946-18.225,37.365-24.399         C297.994,40.472,299.946,40.781,300.213,40.861z"/>
						</g>
					</g>
				</g>
			</g>
		</g>
		<g>
			<g>
				<path style="fill:#D3542B;" d="M160.963,98.761c-6.454,8.742-11.523,18.849-20.192,25.401      c-6.205,4.69-13.769,7.164-20.557,10.962c-23.621,13.215-35.694,44.054-27.321,69.793c2.994,9.203,8.331,18.33,6.74,27.876      c-2.188,13.132-15.956,20.336-25.374,29.745c-13.837,13.824-18.994,35.679-12.796,54.23c2.44,7.303,6.734,14.302,13.336,18.266      c8.679,5.211,20.365,4.694,27.848,11.511c5.697,5.189,7.465,13.308,11.281,20.003c6.795,11.918,21.01,19.154,34.645,17.634      c11.61-1.294,22.506-8.295,34.118-7.019c12.373,1.36,22.146,11.803,34.417,13.889c19.604,3.334,36.937-15.31,56.822-15.402      c14.414-0.067,27.969,9.714,42.241,7.692c8.224-1.165,15.578-6.177,23.843-6.999c14.452-1.437,30.505,9.789,42.442,1.517      c7.187-4.981,9.146-15.179,16.148-20.416c7.165-5.359,17.108-3.916,25.928-5.422c18.819-3.213,33.244-22.804,30.726-41.728      c-1.284-9.652-6.272-19.656-2.477-28.624c1.891-4.469,5.757-7.904,7.505-12.431c3.35-8.679-1.996-18.237-8.143-25.22      c-6.147-6.983-13.628-13.619-15.635-22.703c-2.763-12.506,5.797-24.542,7.68-37.211c1.823-12.267-3.194-25.328-12.759-33.221      c-10.743-8.865-25.892-11.029-36.424-20.144c-19.597-16.961-18.161-53.088-41.883-63.527      c-6.354-2.796-13.585-3.111-19.925-5.938c-4.517-2.014-8.383-5.214-12.55-7.877c-17.297-11.056-39.387-12.437-59.476-8.215      c-20.479,4.304-38.344,14.687-57.719,21.983C186.595,73.512,171.72,84.191,160.963,98.761z"/>
			</g>
			<g>
				<g>
					<path style="fill:#FFC17D;" d="M166.455,118.157c3.494-9.12,10.689-17.054,16.175-25.135       c15.028-22.138,39.88-36.929,66.279-41.292c26.399-4.363,54.056,1.355,77.471,14.305c10.639,5.884,20.594,13.342,27.942,23.028       c4.468,5.891,7.901,12.505,10.842,19.288c13.85,31.944,15.92,69.415,7.585,103.22c-0.456,1.851-2.235,4.999-3.503,6.422       c-2.211,2.482-3.687,0.554-7.01,0.643c-59.452,1.589-119.1,3.171-178.267-2.857c-4.06-0.414-8.12-0.872-12.195-1.101       c-3.033-0.171-3.145,3.384-5.901,2.245c-5.052-2.088-5.838-13.331-7.201-19.948c-3.356-16.3-3.742-34.976,0-51.184       C160.778,136.664,163.103,126.906,166.455,118.157z"/>
				</g>
				<g>
					<g>
						<path style="fill:#FFC17D;" d="M193.476,63.31c-17.145-8.901-38.382-7.951-56.014-0.06        c-8.105,3.627-15.755,8.794-20.813,16.092c-3.535,5.101-5.667,11.02-7.714,16.879c-1.841,5.27-3.645,10.553-5.412,15.849        c8.645,2.63,18.448,1.833,27.283-0.063c8.835-1.895,17.259-5.322,25.558-8.895c13.946-6.005,27.954-12.65,38.987-23.081        c2.85-2.694,5.618-5.925,5.967-9.831C201.667,66.292,197.33,62.588,193.476,63.31z"/>
					</g>
					<g>
						<path style="fill:#FFC17D;" d="M202.724,62.214c0.273-11.015,4.878-21.768,12.229-29.977        c7.351-8.208,17.338-13.902,28.012-16.638c11.717-3.003,24.311-2.49,35.744,1.458c0.077,8.753-4.245,16.814-9.921,23.478        c-5.676,6.664-13.014,11.71-20.607,16.065c-11.028,6.326-23.25,11.463-35.96,11.204        C208.664,67.732,205.22,64.75,202.724,62.214z"/>
					</g>
					<g>
						<path style="fill:#FFC17D;" d="M204.35,56.984c-4.45-0.719-9.198,0.026-12.993,2.458c-3.795,2.432-6.519,6.623-6.78,11.123        c-0.261,4.5,2.136,9.153,6.148,11.206c1.15,0.589,2.451,0.971,3.733,0.801s2.423-0.867,3.522-1.548        c1.955-1.212,3.91-2.425,5.865-3.637c4.87,0.457,9.879-1.233,13.833-4.112c4.209-3.065,7.253-8.412,5.923-13.445        c-1.008-3.814-4.479-6.759-8.358-7.475C211.364,51.638,207.268,54.33,204.35,56.984z"/>
					</g>
					<g>
						<g>
							<path style="fill:#331510;" d="M190.123,85.512c-0.997,0-1.997-0.208-2.94-0.689c-2.269-1.157-3.478-3.542-4.094-5.337         c-2.647-7.737,1.093-17.111,8.339-20.9c3.526-1.847,7.84-2.593,13.205-2.256c0.315,0.018,0.555,0.289,0.536,0.604         c-0.019,0.316-0.279,0.622-0.606,0.536c-5.145-0.305-9.268,0.384-12.606,2.129c-6.765,3.538-10.258,12.292-7.785,19.516         c0.546,1.596,1.603,3.705,3.531,4.69c2.535,1.293,5.625,0.19,7.558-1.474c2.178-1.874,3.51-4.525,4.8-7.089         c0.142-0.283,0.484-0.393,0.767-0.253c0.283,0.142,0.396,0.486,0.254,0.769c-1.277,2.538-2.725,5.416-5.076,7.441         C194.48,84.512,192.308,85.512,190.123,85.512z"/>
						</g>
						<g>
							<path style="fill:#331510;" d="M204.92,77.971c-1.724,0-3.088-0.511-4.064-1.526c-1.551-1.612-2.055-4.396-1.496-8.278         c0.309-2.145,0.825-4.939,2.091-7.516c1.547-3.149,3.913-5.326,6.659-6.132c2.543-0.744,5.511-0.531,8.829,0.646         c2.489,0.882,6.829,2.805,7.925,5.769c0.441,1.193,0.31,2.419-0.392,3.639c-0.575,0.999-1.518,1.6-2.431,2.181         c-0.302,0.192-0.605,0.384-0.889,0.592c-1.227,0.888-2.164,2.082-3.158,3.345c-0.538,0.685-1.095,1.392-1.702,2.048         c-2.671,2.88-6.442,4.767-10.346,5.176C205.59,77.953,205.249,77.971,204.92,77.971z M211.259,55.229         c-1.002,0-1.945,0.129-2.827,0.389l0,0c-2.437,0.714-4.551,2.681-5.956,5.538c-1.196,2.432-1.689,5.113-1.985,7.175         c-0.348,2.416-0.424,5.649,1.188,7.324c0.905,0.938,2.299,1.322,4.146,1.123c3.634-0.38,7.142-2.134,9.627-4.815         c0.575-0.619,1.118-1.311,1.642-1.978c0.998-1.268,2.029-2.581,3.385-3.565c0.304-0.219,0.625-0.425,0.947-0.631         c0.832-0.529,1.618-1.031,2.052-1.786c0.532-0.927,0.634-1.802,0.312-2.674c-0.97-2.62-5.382-4.43-7.234-5.088         C214.651,55.566,212.879,55.229,211.259,55.229z M208.271,55.068h0.015H208.271z"/>
						</g>
					</g>
					<g>
						<path style="fill:#331510;" d="M219.395,57.566c-0.193,0-0.383-0.099-0.491-0.278c-0.162-0.271-0.075-0.622,0.197-0.784        c13.109-7.868,23.296-15.079,32.058-22.697c1.685-1.462,3.239-3.081,3.209-4.991c-0.005-0.332-0.068-0.793-0.34-1.108        c-0.335-0.389-0.969-0.576-1.927-0.506c-3.605,0.172-6.964,1.967-9.487,3.51c-10.571,6.472-18.499,15.9-25.493,25.124        c-0.192,0.251-0.55,0.296-0.801,0.111c-0.251-0.192-0.301-0.549-0.11-0.802c7.061-9.313,15.075-18.838,25.807-25.409        c2.639-1.614,6.164-3.492,10.029-3.678c1.328-0.052,2.268,0.233,2.846,0.902c0.393,0.454,0.608,1.09,0.619,1.838        c0.037,2.378-1.709,4.229-3.602,5.873c-8.814,7.66-19.052,14.912-32.221,22.814C219.598,57.539,219.496,57.566,219.395,57.566        z"/>
					</g>
					<g>
						<path style="fill:#331510;" d="M127.877,97.623c-0.828,0-1.661-0.079-2.492-0.26c-1.496-0.325-2.456-1.146-2.566-2.199        c-0.067-0.651,0.209-1.236,0.487-1.725c1.601-2.794,4.297-4.776,6.467-6.189c6.591-4.288,14.001-7.037,20.38-9.161        c6.256-2.082,12.659-3.92,19.034-5.461l1.387-0.339c4.157-1.024,8.085-1.994,12.425-1.603        c0.314,0.029,0.547,0.305,0.519,0.622c-0.029,0.314-0.327,0.574-0.62,0.518c-4.16-0.373-7.989,0.574-12.05,1.573l-1.391,0.341        c-6.344,1.535-12.717,3.363-18.941,5.434c-6.31,2.1-13.635,4.817-20.118,9.035c-2.061,1.343-4.618,3.217-6.099,5.8        c-0.188,0.328-0.376,0.71-0.342,1.038c0.066,0.631,0.906,1.033,1.672,1.2c3.25,0.698,6.658-0.337,9.599-1.374        c4.382-1.548,8.74-3.404,12.953-5.197c11.495-4.894,23.368-9.946,34.269-16.39c0.267-0.163,0.622-0.072,0.782,0.201        c0.162,0.274,0.071,0.624-0.201,0.784c-10.965,6.481-22.873,11.548-34.389,16.451c-4.244,1.806-8.618,3.669-13.035,5.226        C133.244,96.784,130.584,97.623,127.877,97.623z"/>
					</g>
				</g>
			</g>
			<g>
				<g>
					<path style="fill:#FF8476;" d="M324.559,381.239c-3.156-1.761-5.694-3.682-7.478-5.808c-2.035-2.447-3.842-6.883-5.42-12.257       c-0.114-0.366-0.229-0.732-0.32-1.098c-2.195-7.683-3.933-17.105-5.191-25.268c-0.457-2.881-0.823-5.603-1.143-8.049       c-0.069-0.412-0.114-0.8-0.16-1.166c-0.8-5.946-1.189-9.947-1.189-9.947l-43.585,2.492l-1.875,0.091l-15.847,0.915       c0,0-0.137,4.917-0.64,11.914c-0.046,0.48-0.091,0.961-0.114,1.441c-0.137,1.738-0.297,3.613-0.48,5.534       c-1.052,11.205-2.927,24.788-6.174,33.272c-0.229,0.595-0.457,1.143-0.686,1.67c-1.486,3.384-3.247,5.694-5.328,6.311       c-0.937,0.274-2.584,0.617-4.871,1.052l-9.592,54.558l45.629,39.587l48.465-5.57l19.893-51.324L324.559,381.239z"/>
				</g>
				<g style="opacity:0.46;">
					<path style="fill:#331510;" d="M306.151,336.808c-8.964,10.953-23.371,17.493-37.525,16.259       c-8.392-0.732-19.391-5.717-27.509-13.035c0.983-10.496,1.235-18.888,1.235-18.888l61.307-3.499       C303.659,317.645,304.653,326.183,306.151,336.808z"/>
				</g>
			</g>
			<g>
				<g>
					<g>
						<path style="fill:#FF8476;" d="M132.214,217.63c-10.721,7.535-15.247,22.407-11.505,34.966        c3.741,12.558,15.003,22.281,27.776,25.209c9.991,2.29,21.567,0.242,28.29-7.496c3.587-4.129,5.508-9.507,6.235-14.928        C186.547,228.989,158.589,199.092,132.214,217.63z"/>
					</g>
					<g>
						<path style="fill:#331510;" d="M179.169,262.872c-0.387,0-0.763-0.197-0.979-0.552c-6.318-10.409-12.818-18.49-19.87-24.708        c-8.507-7.498-18.099-12.423-27.74-14.245c-0.62-0.118-1.028-0.714-0.911-1.336c0.119-0.619,0.712-1.024,1.336-0.911        c10.044,1.899,20.012,7.007,28.827,14.778c7.229,6.372,13.873,14.627,20.313,25.237c0.328,0.538,0.156,1.241-0.384,1.569        C179.576,262.817,179.372,262.872,179.169,262.872z"/>
					</g>
				</g>
				<g>
					<g>
						<path style="fill:#FF8476;" d="M406.925,219.858c9.844,8.648,12.739,23.922,7.663,36.003        c-5.075,12.081-17.321,20.531-30.335,22.063c-10.18,1.198-21.467-2.088-27.315-10.506c-3.121-4.492-4.45-10.046-4.587-15.514        C351.682,225.286,382.706,198.582,406.925,219.858z"/>
					</g>
					<g>
						<path style="fill:#331510;" d="M355.483,259.773c-0.242,0-0.487-0.077-0.694-0.237c-0.502-0.382-0.597-1.101-0.212-1.603        c7.551-9.853,15.047-17.342,22.918-22.893c9.604-6.774,20.066-10.78,30.255-11.58c0.648-0.047,1.18,0.42,1.23,1.049        c0.049,0.631-0.422,1.18-1.051,1.23c-9.78,0.771-19.847,4.632-29.116,11.169c-7.679,5.418-15.012,12.751-22.421,22.419        C356.167,259.619,355.826,259.773,355.483,259.773z"/>
					</g>
				</g>
				<g>
					<g>
						<path style="fill:#FF8476;" d="M373.518,169.487c0,4.619-0.32,9.147-0.892,13.583c-0.137,6.86-0.32,14.635-0.595,22.776        c-0.023,0.8-0.069,1.623-0.091,2.424c-0.114,2.881-0.229,5.831-0.343,8.781v0.023c-0.366,8.141-0.8,16.419-1.349,24.331        c-0.023,0.343-0.046,0.663-0.069,1.006v0.023c-0.915,12.508-2.081,24.079-3.636,32.837c-0.434,2.493-0.892,4.734-1.395,6.723        c-2.31,9.124-7.135,16.533-13.423,22.479h-0.023c-13.172,12.577-32.815,18.911-49.416,21.701h-0.023        c-2.31,0.366-4.528,0.686-6.7,0.961c-12.28,1.441-34.141,3.018-55.979,1.509h-0.023c-22.844-1.601-45.666-6.609-57.329-18.751        c-1.967-2.058-3.773-4.688-5.397-7.82c-3.544-6.769-6.288-15.756-8.415-25.772c-2.012-9.49-3.476-19.872-4.528-30.139        c-0.183-1.761-0.343-3.499-0.503-5.259v-0.023c-0.823-9.147-1.326-18.042-1.669-25.954c-0.023-0.709-0.046-1.395-0.069-2.081        c-0.618-16.144-0.412-27.624-0.412-27.624l0.572-0.069c-0.778-5.122-1.166-10.336-1.166-15.664        c0-36.313,18.545-68.282,46.741-87.239c0.526-0.389,1.075-0.755,1.623-1.098c16.693-10.771,36.633-17.036,58.06-17.036h1.006        c2.676,0.023,5.328,0.16,7.935,0.366c50.171,4.139,90.394,42.671,96.637,91.698l0.297-0.046c0,0,0,0.755,0,2.15        C373.312,161.964,373.518,165.715,373.518,169.487z"/>
					</g>
				</g>
			</g>
			<g>
				<path style="fill:#331510;" d="M435.969,408.954c-1.189,1.555-2.447,3.087-3.705,4.596c-0.389,0.457-0.777,0.937-1.212,1.395      c-2.355,2.813-4.757,5.58-7.272,8.301l-0.023,0.023c0.023,0,0.023,0,0.046,0c-0.297,0.32-0.617,0.64-0.915,0.96      c-0.023,0-0.023,0-0.046,0c-1.761,1.898-3.567,3.773-5.419,5.626c-1.738,1.738-3.522,3.453-5.305,5.122      c-0.32,0.297-0.64,0.618-0.96,0.915c-10.039,9.307-20.672,17.585-31.785,24.811c-0.389,0.275-0.755,0.503-1.166,0.755      c-7.843,5.054-15.961,9.581-24.239,13.583c-0.343,0.183-0.663,0.343-1.006,0.48c-3.728,1.807-7.523,3.476-11.319,5.054      c-0.412,0.16-0.8,0.343-1.212,0.503c-12.211,4.985-24.742,8.895-37.457,11.686c-0.435,0.091-0.846,0.183-1.281,0.297      c-11.091,2.378-22.341,3.91-33.638,4.665c-0.412,0.046-0.8,0.069-1.212,0.069c-0.526,0.046-1.029,0.069-1.532,0.091      c-0.412,0.023-0.8,0.046-1.212,0.046c-11.594,0.595-23.187,0.297-34.713-0.892c-0.389-0.023-0.8-0.069-1.166-0.137      c-11.251-1.166-22.364-3.178-33.295-6.014c-0.389-0.091-0.755-0.206-1.121-0.32c-7.501-1.967-14.887-4.299-22.181-7.066      c-0.366-0.16-0.709-0.275-1.052-0.412c-3.247-1.235-6.448-2.561-9.627-3.956c-0.366-0.16-0.732-0.32-1.075-0.48      c-11.685-5.145-22.982-11.319-33.775-18.545c-0.389-0.252-0.777-0.503-1.143-0.778c-11.914-8.026-23.21-17.288-33.752-27.829      c-2.058-2.058-4.07-4.139-5.991-6.243c-0.183-0.183-0.389-0.389-0.549-0.595c9.878-7.729,23.713-14.155,38.966-19.506      c0.48-0.183,0.983-0.343,1.486-0.503c37.594-12.966,83.123-19.414,98.947-22.319c5.237,8.095,10.542,16.167,15.916,24.194      c0.206,0.32,0.412,0.64,0.663,0.96c5.099,7.706,10.29,15.367,15.55,23.005c0.206,0.32,0.412,0.64,0.663,0.96      c5.008,7.318,10.062,14.612,15.184,21.861c0.206,0.32,0.434,0.617,0.663,0.915c0.137,0.229,0.32,0.48,0.48,0.709      c0.594-0.823,1.212-1.624,1.806-2.447c0.732-1.006,1.486-2.012,2.218-3.019c12.348-16.762,24.605-33.295,36.016-50.468      c0.297-0.434,0.595-0.869,0.892-1.326c3.567-5.397,7.066-10.885,10.45-16.442c18.363,10.176,57.191,14.155,83.603,18.134      C419.39,401.065,428.674,404.815,435.969,408.954z"/>
			</g>
			<g>
				<g>
					<g>
						<path style="fill:#331510;" d="M277.791,247.083c-1.842,0-3.662-0.604-5.441-1.191c-1.96-0.651-3.81-1.259-5.652-1.119        c-0.723,0.057-1.45,0.233-2.22,0.418c-1.285,0.307-2.614,0.633-4.012,0.398c-1.519-0.249-2.926-1.614-3.27-3.174        c-0.246-1.114,0.131-2.136,1.01-2.733c0.389-0.264,0.926-0.163,1.191,0.228s0.164,0.924-0.228,1.191        c-0.108,0.075-0.441,0.301-0.298,0.945c0.171,0.773,0.964,1.702,1.874,1.851c1.056,0.174,2.161-0.093,3.331-0.375        c0.801-0.192,1.63-0.393,2.489-0.459c2.175-0.181,4.289,0.524,6.325,1.198c2.385,0.791,4.638,1.537,6.755,0.805        c1.352-0.466,2.468-1.494,3.651-2.579c1.429-1.313,2.905-2.67,4.914-3.094c0.695-0.147,1.398-0.167,2.078-0.188        c1.07-0.034,2.082-0.063,2.776-0.599c1.061-0.816,1.095-2.561,0.989-4.161c-1.036-15.502-4.395-30.71-9.983-45.203        c-0.171-0.441,0.05-0.938,0.492-1.108c0.442-0.165,0.939,0.05,1.109,0.493c5.65,14.652,9.046,30.029,10.094,45.705        c0.137,2.052,0.047,4.326-1.653,5.635c-1.135,0.873-2.535,0.913-3.77,0.952c-0.633,0.018-1.231,0.036-1.777,0.151        c-1.548,0.328-2.792,1.472-4.107,2.679c-1.259,1.157-2.562,2.355-4.251,2.941        C279.397,246.967,278.592,247.083,277.791,247.083z"/>
					</g>
					<g>
						<g>
							
								<ellipse transform="matrix(0.9956 -0.0936 0.0936 0.9956 -18.4099 21.2592)" style="fill:#331510;" cx="217.445" cy="206.902" rx="11.334" ry="11.334"/>
						</g>
						<g>
							<path style="fill:#331510;" d="M315.839,193.814c5.938-1.979,12.357,1.23,14.336,7.168c1.979,5.938-1.23,12.357-7.168,14.336         c-5.938,1.979-12.357-1.23-14.337-7.168C306.691,202.212,309.901,195.794,315.839,193.814z"/>
						</g>
						<g>
							<path style="fill:#D3542B;" d="M187.357,182.678c1.686,0.864,3.65,0.957,5.544,1.02c7.211,0.242,14.431,0.325,21.645,0.218         c5.884-0.087,12.394,0.726,17.865-1.889c2.365-1.13,4.62-3.344,4.341-5.95c-0.965-8.998-18.483-8.826-24.41-7.597         c-5.053,1.048-9.823,3.133-14.285,5.691C197.163,174.684,186.82,182.403,187.357,182.678z"/>
						</g>
						<g>
							<path style="fill:#D3542B;" d="M349.438,181.802c-1.686,0.864-3.65,0.957-5.544,1.02c-7.211,0.242-14.431,0.325-21.645,0.218         c-5.884-0.087-12.394,0.726-17.865-1.889c-2.365-1.13-4.62-3.344-4.341-5.951c0.965-8.998,18.483-8.826,24.41-7.597         c5.053,1.048,9.823,3.133,14.285,5.691C339.631,173.808,349.975,181.527,349.438,181.802z"/>
						</g>
					</g>
				</g>
				<g>
					<path style="fill:#FF5E5E;" d="M312.714,261.994c-13.9,1.351-27.407-8.499-41.126-5.886c-3.965,0.755-7.651,2.52-11.431,3.935       c-7.45,2.789-15.397,4.246-23.353,4.279C261.681,269.968,288.318,269.45,312.714,261.994z"/>
				</g>
				<g>
					<path style="fill:#FF5E5E;" d="M275.857,280.575c-4.367,0-8.703-1.325-12.319-3.782c-0.261-0.176-0.329-0.533-0.151-0.793       c0.176-0.26,0.536-0.328,0.793-0.151c3.721,2.527,8.239,3.813,12.736,3.556c4.493-0.235,8.858-1.962,12.294-4.864       c0.242-0.203,0.602-0.172,0.805,0.068c0.205,0.242,0.174,0.601-0.068,0.805c-3.625,3.063-8.231,4.885-12.971,5.136       C276.603,280.566,276.23,280.575,275.857,280.575z"/>
				</g>
			</g>
			<g>
				<g>
					<path style="fill:#FFFFFF;" d="M169.569,279.688c0,5.589-4.531,10.12-10.12,10.12s-10.12-4.531-10.12-10.12       c0-5.589,4.531-10.12,10.12-10.12S169.569,274.099,169.569,279.688z"/>
				</g>
				<g>
					<path style="fill:#FFFFFF;" d="M387.539,277.742c0,5.589-4.531,10.12-10.12,10.12c-5.589,0-10.12-4.531-10.12-10.12       c0-5.589,4.531-10.12,10.12-10.12C383.008,267.622,387.539,272.153,387.539,277.742z"/>
				</g>
			</g>
			<g>
				<g>
					<g>
						<path style="fill:#D3542B;" d="M209.712,114.018c-0.835,3.547,0.464,7.21,0.974,10.85c1.252,8.857-2.689,18.269-9.853,23.625        c-3.988,2.968-8.833,4.73-12.543,8.045c-6.399,5.75-8.23,14.931-8.949,23.509c-0.835,9.853-0.696,21.562-7.976,29.236        c-3.733,3.942-7.605,5.611-11.175,4.591c-0.626-16.368-0.741-27.236-0.741-27.236l0.073-1.679        c0.219-6.13-0.353-9.641-0.353-15.043c0-37.513,19.522-70.481,49.036-89.562c2.017,1.182,3.849,2.666,5.379,4.451        c4.22,4.845,5.842,12.195,2.968,17.968C214.581,106.715,210.732,109.705,209.712,114.018z"/>
					</g>
					<g>
						<path style="fill:#D3542B;" d="M374.995,169.916c0,4.683-0.324,9.274-0.904,13.772c-0.139,6.956-0.74,14.432-1.733,22.631        c-0.637,5.264-1.94,11.424-1.751,10.704c-5.448-10.781-5.21-30.831-4.422-42.933c0.487-7.535,1.623-16.577-4.359-21.214        c-4.66-3.594-11.708-2.55-16.461-6.051c-8.207-6.098-3.733-20.426-10.572-28.007c-4.707-5.217-12.937-5.17-19.684-3.246        c-6.724,1.924-13.192,5.332-20.194,5.541c-8.926,0.255-17.736-5.332-21.33-13.517c-3.339-7.605-3.153-17.898-10.41-21.933        c-5.17-2.875-11.708-0.881-16.878,2.017c-5.17,2.898-10.085,6.724-15.951,7.512c-9.622,1.321-17.829-5.634-23.787-13.725        c0.533-0.394,1.09-0.765,1.646-1.113c16.925-10.92,37.142-17.273,58.866-17.273h1.02c2.713,0.023,5.402,0.162,8.045,0.371        c50.867,4.196,91.649,43.262,97.978,92.97l0.301-0.046c0,0,0,0.765,0,2.179C374.787,162.288,374.995,166.091,374.995,169.916z        "/>
					</g>
				</g>
				<g>
					<g>
						<path style="fill:#D3542B;" d="M160.122,208.655c0.928,9.173,1.856,18.346,2.784,27.519        c6.98-8.057,11.431-17.745,12.652-28.336c0.445-3.858,0.04-8.556-3.363-10.425c-2.721-1.494-6.283-0.341-8.477,1.855        C161.524,201.464,159.81,205.566,160.122,208.655z"/>
					</g>
					<g>
						<path style="fill:#D3542B;" d="M381.028,198.076c-2.06,8.987-4.119,17.974-6.179,26.961        c-5.926-8.861-9.139-19.027-9.037-29.687c0.037-3.883,1.022-8.495,4.632-9.928c2.885-1.145,6.277,0.442,8.181,2.893        C380.529,190.767,381.721,195.05,381.028,198.076z"/>
					</g>
				</g>
			</g>
		</g>
	</g>
</g>















</svg>
